 http://www.torrentday.com - Your Key To The Scene.

 
http://www.torrentday.com :  Clean RAR Scene Releases!


Enjoy =)

...................................NFO:....................................

.SPRiNTER proudly presents...



Nature.Fellowship.Of.The.Whales.2009.DVDRip.XviD-SPRiNTER 
http://www.amazon.com/Nature-Fellowship-F-Murray-Abraham/dp/B002YOJELQ
Date: 2010.03


Director: WNET- Nature
Genre: Documentary

Plot:
In Hawaii, where new land is born as volcanic rock, another birth takes place. A baby humpback
enters the world and joins the 3,000 or more whales that congregate in the warm waters off Hawaii
each winter to mate and give birth. This is the story of her first year of life. Over twelve months
she will learn many skills from her mother, and eventually they will make the several-thousand-mile
journey together to Alaska's southeast coast.


Cast:
F. Murray Abraham 


Release notes:
Enjoy!

Stats:
Format                           : AVI
Format/Info                      : Audio Video Interleave
File size                        : 697 MiB
Duration                         : 53mn 10s
Overall bit rate                 : 1 831 Kbps
Writing application              : VirtualDubMod 1.5.10.2 (build 2540/release)
Writing library                  : VirtualDubMod build 2540/release

Video
ID                               : 0
Format                           : MPEG-4 Visual
Format profile                   : AdvancedSimple@L5
Format settings, BVOP            : Yes
Format settings, QPel            : No
Format settings, GMC             : No warppoints
Format settings, Matrix          : Default (H.263)
Codec ID                         : XVID
Codec ID/Hint                    : XviD
Duration                         : 53mn 10s
Bit rate                         : 1 630 Kbps
Width                            : 624 pixels
Height                           : 352 pixels
Display aspect ratio             : 16:9
Frame rate                       : 23.976 fps
Resolution                       : 24 bits
Colorimetry                      : 4:2:0
Scan type                        : Progressive
Bits/(Pixel*Frame)               : 0.309
Stream size                      : 620 MiB (89%)
Writing library                  : XviD 1.2.1 (UTC 2008-12-04)

Audio
ID                               : 1
Format                           : AC-3
Format/Info                      : Audio Coding 3
Codec ID                         : 2000
Duration                         : 53mn 10s
Bit rate mode                    : Constant
Bit rate                         : 192 Kbps
Channel(s)                       : 2 channels
Channel positions                : L R
Sampling rate                    : 48.0 KHz
Stream size                      : 73.0 MiB (10%)
Alignment                        : Split accross interleaves
Interleave, duration             : 42 ms (1.00 video frame)
Interleave, preload duration     : 500 ms